<svg xmlns="http://www.w3.org/2000/svg" width="15" height="15" viewBox="0 0 15 15">
    <path id="Shape" d="M13.727 15H1.5A1.542 1.542 0 0 1 0 13.6V2.39c0-.74.755-1.127 1.5-1.127h1.9V.687a.708.708 0 0 1 1.415 0v.577h5.377V.687a.708.708 0 0 1 1.415 0v.577h2.123A1.119 1.119 0 0 1 15 2.39V13.6a1.344 1.344 0 0 1-1.273 1.4zM1.415 6.484v7.142h12.312l-.142-7.335v.193zm0-3.847V5.11h12.17V2.637H11.6v.688a.708.708 0 0 1-1.415 0v-.688H4.811v.688a.708.708 0 0 1-1.415 0v-.688z" style="fill:#454545"/>
</svg>
