        <svg xmlns="http://www.w3.org/2000/svg" id="Group_8" width="49" height="49" data-name="Group 8" viewBox="0 0 49 49">
            <g id="Rectangle_8" style="fill:none;stroke:#d4d4d4;stroke-miterlimit:10" data-name="Rectangle 8">
                <rect width="49" height="49" style=";stroke:none" rx="24.5"/>
                <rect width="48" height="48" x=".5" y=".5" style="fill:none" rx="24"/>
            </g>
            <path id="Shape" d="M.566 17a.564.564 0 0 1-.4-.165.575.575 0 0 1-.145-.553l3.358-12.5a.045.045 0 0 1 .007-.019.048.048 0 0 0 .007-.02.483.483 0 0 1 .131-.223.563.563 0 0 1 .211-.131.046.046 0 0 0 .02-.007.045.045 0 0 1 .02-.007L16.282.02a.6.6 0 0 1 .152-.02.564.564 0 0 1 .4.165.575.575 0 0 1 .145.553l-3.358 12.5a.046.046 0 0 1-.007.019.046.046 0 0 0-.007.019.51.51 0 0 1-.131.211.787.787 0 0 1-.224.132.028.028 0 0 0-.026.026L.718 16.98a.6.6 0 0 1-.152.02zm15-15.6L4.984 4.23l7.756 7.75L15.571 1.4z" style="fill:#d4d4d4" transform="translate(16 16)"/>
        </svg>
