<svg xmlns="http://www.w3.org/2000/svg" width="15" height="14.109" viewBox="0 0 15 14.109">
    <g id="noun_like_837118" transform="translate(0 -.005)">
        <path id="Shape" d="M7.5 14.109l-1.348-1.348A40.963 40.963 0 0 1 1.758 8.5 6.465 6.465 0 0 1 0 4.369 4.315 4.315 0 0 1 4.37 0 4.717 4.717 0 0 1 7.5 1.222 4.721 4.721 0 0 1 10.628 0 4.32 4.32 0 0 1 15 4.369 6.465 6.465 0 0 1 13.243 8.5a41.051 41.051 0 0 1-4.395 4.257L7.5 14.109zM4.37 1.09a3.207 3.207 0 0 0-3.28 3.279c0 2.346 2.095 4.312 5.8 7.586l.024.022.588.59.6-.6.013-.012c3.7-3.275 5.8-5.242 5.8-7.586a3.207 3.207 0 0 0-3.28-3.279 3.655 3.655 0 0 0-2.719 1.268l-.417.49-.416-.491A3.649 3.649 0 0 0 4.37 1.09z" style="fill:#4d668a" transform="translate(0 .005)"/>
    </g>
</svg>
