<svg xmlns="http://www.w3.org/2000/svg" width="13.364" height="11.762" viewBox="0 0 13.364 11.762">
    <g id="Repeat" transform="translate(0 -.999)">
        <path id="Fill_1" d="M11.675.37a.5.5 0 1 0-.965.26 3.505 3.505 0 0 1-3.382 4.407h-4.5V3.708L0 5.537l2.828 1.828V6.037h4.5A4.5 4.5 0 0 0 11.675.37" style="fill:#b3b3b3" data-name="Fill 1" transform="translate(1.536 5.396)"/>
        <path id="Fill_3" d="M1 5.829a3.5 3.5 0 0 1 3.5-3.5H9v1.329l2.828-1.829L9 0v1.329H4.5A4.5 4.5 0 0 0 .153 7a.5.5 0 0 0 .483.37.534.534 0 0 0 .13-.017.5.5 0 0 0 .352-.613A3.526 3.526 0 0 1 1 5.829" style="fill:#b3b3b3" data-name="Fill 3" transform="translate(0 .999)"/>
    </g>
</svg>
