<svg xmlns="http://www.w3.org/2000/svg" id="noun_Search_2017702" width="17" height="17.705" viewBox="0 0 17 17.705">
    <path id="Shape" d="M16.431 17.7a.534.534 0 0 1-.4-.178l-3.883-4.032a7.12 7.12 0 0 1-4.771 1.853h-.01A7.532 7.532 0 0 1 0 7.672 7.532 7.532 0 0 1 7.367 0a7.531 7.531 0 0 1 7.365 7.672 7.768 7.768 0 0 1-1.778 4.98l3.874 4.048a.583.583 0 0 1 0 .827.535.535 0 0 1-.397.173zM7.367 1.18a6.374 6.374 0 0 0-6.234 6.492 6.6 6.6 0 0 0 1.829 4.586 6.083 6.083 0 0 0 4.4 1.9A6.373 6.373 0 0 0 13.6 7.672 6.373 6.373 0 0 0 7.367 1.18z" style="fill:#151515"/>
</svg>
