<svg xmlns="http://www.w3.org/2000/svg" width="14.149" height="10.657" viewBox="0 0 14.149 10.657">
    <g id="Shuffle">
        <path id="Fill_1" d="M.5 1a3.013 3.013 0 0 1 1.942.673l1.024.878a.5.5 0 1 0 .651-.759L3.094.915A4.021 4.021 0 0 0 .5 0a.5.5 0 0 0 0 1" style="fill:#b3b3b3" data-name="Fill 1" transform="translate(0 1.328)"/>
        <path id="Fill_3" d="M11.314 2.331L11.3 3.657l2.853-1.79L11.345 0l-.017 1.33a4.022 4.022 0 0 0-2.577.913L2.442 7.655A3.01 3.01 0 0 1 .5 8.329a.5.5 0 0 0 0 1 4.027 4.027 0 0 0 2.594-.915L9.4 3a3.006 3.006 0 0 1 1.911-.671" style="fill:#b3b3b3" data-name="Fill 3"/>
        <path id="Fill_5" d="M3.792 1.685a3.012 3.012 0 0 1-1.925-.672L.826.121a.5.5 0 1 0-.651.758l1.041.893a4.017 4.017 0 0 0 2.562.912l-.017 1.331 2.852-1.79L3.81.358z" style="fill:#b3b3b3" data-name="Fill 5" transform="translate(7.536 6.642)"/>
    </g>
</svg>
